<svg xmlns="http://www.w3.org/2000/svg" width="900" height="900" viewBox="0 0 900 900">
<defs><radialGradient id="b"><stop stop-color="#171717"/><stop offset="1" stop-color="#000"/></radialGradient><linearGradient id="r"><stop stop-color="#bd62ff"/><stop offset=".5" stop-color="#6e31df"/><stop offset="1" stop-color="#d16aff"/></linearGradient></defs>
<circle cx="450" cy="450" r="435" fill="url(#r)"/><circle cx="450" cy="450" r="414" fill="url(#b)" stroke="#35194f" stroke-width="3"/>
<path d="M55 95L845 620M40 208L810 720" stroke="#8239ec" stroke-opacity=".18" stroke-width="22"/>
<image href="hot-flash-logo.png" x="365" y="62" width="170" height="142"/>
<text x="450" y="203" fill="#fff" font-family="Inter,Arial,sans-serif" font-size="34" font-weight="900" text-anchor="middle" letter-spacing="5">HOT FLASH</text>
<text x="450" y="238" fill="#d9b8ff" font-family="Inter,Arial,sans-serif" font-size="20" font-weight="900" text-anchor="middle" letter-spacing="3">FOUNDER SPECIAL EDITION</text>
<path d="M270.00,270.00h76.36v10.91h-76.36zM390.00,270.00h10.91v10.91h-10.91zM422.73,270.00h10.91v10.91h-10.91zM499.09,270.00h21.82v10.91h-21.82zM553.64,270.00h76.36v10.91h-76.36zM270.00,280.91h10.91v10.91h-10.91zM335.45,280.91h10.91v10.91h-10.91zM357.27,280.91h10.91v10.91h-10.91zM411.82,280.91h21.82v10.91h-21.82zM455.45,280.91h10.91v10.91h-10.91zM488.18,280.91h10.91v10.91h-10.91zM531.82,280.91h10.91v10.91h-10.91zM553.64,280.91h10.91v10.91h-10.91zM619.09,280.91h10.91v10.91h-10.91zM270.00,291.82h10.91v10.91h-10.91zM291.82,291.82h32.73v10.91h-32.73zM335.45,291.82h10.91v10.91h-10.91zM357.27,291.82h32.73v10.91h-32.73zM411.82,291.82h10.91v10.91h-10.91zM444.55,291.82h65.45v10.91h-65.45zM553.64,291.82h10.91v10.91h-10.91zM575.45,291.82h32.73v10.91h-32.73zM619.09,291.82h10.91v10.91h-10.91zM270.00,302.73h10.91v10.91h-10.91zM291.82,302.73h32.73v10.91h-32.73zM335.45,302.73h10.91v10.91h-10.91zM357.27,302.73h21.82v10.91h-21.82zM400.91,302.73h10.91v10.91h-10.91zM433.64,302.73h10.91v10.91h-10.91zM477.27,302.73h10.91v10.91h-10.91zM499.09,302.73h32.73v10.91h-32.73zM553.64,302.73h10.91v10.91h-10.91zM575.45,302.73h32.73v10.91h-32.73zM619.09,302.73h10.91v10.91h-10.91zM270.00,313.64h10.91v10.91h-10.91zM291.82,313.64h32.73v10.91h-32.73zM335.45,313.64h10.91v10.91h-10.91zM368.18,313.64h10.91v10.91h-10.91zM390.00,313.64h32.73v10.91h-32.73zM433.64,313.64h10.91v10.91h-10.91zM466.36,313.64h10.91v10.91h-10.91zM499.09,313.64h43.64v10.91h-43.64zM553.64,313.64h10.91v10.91h-10.91zM575.45,313.64h32.73v10.91h-32.73zM619.09,313.64h10.91v10.91h-10.91zM270.00,324.55h10.91v10.91h-10.91zM335.45,324.55h10.91v10.91h-10.91zM379.09,324.55h21.82v10.91h-21.82zM444.55,324.55h21.82v10.91h-21.82zM488.18,324.55h10.91v10.91h-10.91zM531.82,324.55h10.91v10.91h-10.91zM553.64,324.55h10.91v10.91h-10.91zM619.09,324.55h10.91v10.91h-10.91zM270.00,335.45h76.36v10.91h-76.36zM357.27,335.45h10.91v10.91h-10.91zM379.09,335.45h10.91v10.91h-10.91zM400.91,335.45h10.91v10.91h-10.91zM422.73,335.45h10.91v10.91h-10.91zM444.55,335.45h10.91v10.91h-10.91zM466.36,335.45h10.91v10.91h-10.91zM488.18,335.45h10.91v10.91h-10.91zM510.00,335.45h10.91v10.91h-10.91zM531.82,335.45h10.91v10.91h-10.91zM553.64,335.45h76.36v10.91h-76.36zM357.27,346.36h21.82v10.91h-21.82zM390.00,346.36h21.82v10.91h-21.82zM466.36,346.36h10.91v10.91h-10.91zM510.00,346.36h10.91v10.91h-10.91zM531.82,346.36h10.91v10.91h-10.91zM270.00,357.27h10.91v10.91h-10.91zM335.45,357.27h10.91v10.91h-10.91zM357.27,357.27h21.82v10.91h-21.82zM411.82,357.27h32.73v10.91h-32.73zM455.45,357.27h10.91v10.91h-10.91zM510.00,357.27h10.91v10.91h-10.91zM531.82,357.27h32.73v10.91h-32.73zM586.36,357.27h32.73v10.91h-32.73zM280.91,368.18h10.91v10.91h-10.91zM302.73,368.18h10.91v10.91h-10.91zM324.55,368.18h10.91v10.91h-10.91zM357.27,368.18h10.91v10.91h-10.91zM379.09,368.18h32.73v10.91h-32.73zM433.64,368.18h21.82v10.91h-21.82zM466.36,368.18h32.73v10.91h-32.73zM520.91,368.18h10.91v10.91h-10.91zM575.45,368.18h43.64v10.91h-43.64zM280.91,379.09h10.91v10.91h-10.91zM313.64,379.09h54.55v10.91h-54.55zM379.09,379.09h21.82v10.91h-21.82zM433.64,379.09h21.82v10.91h-21.82zM466.36,379.09h10.91v10.91h-10.91zM510.00,379.09h10.91v10.91h-10.91zM531.82,379.09h21.82v10.91h-21.82zM575.45,379.09h10.91v10.91h-10.91zM597.27,379.09h10.91v10.91h-10.91zM270.00,390.00h10.91v10.91h-10.91zM291.82,390.00h21.82v10.91h-21.82zM346.36,390.00h32.73v10.91h-32.73zM400.91,390.00h10.91v10.91h-10.91zM422.73,390.00h10.91v10.91h-10.91zM444.55,390.00h10.91v10.91h-10.91zM520.91,390.00h10.91v10.91h-10.91zM553.64,390.00h54.55v10.91h-54.55zM270.00,400.91h32.73v10.91h-32.73zM313.64,400.91h87.27v10.91h-87.27zM411.82,400.91h120.00v10.91h-120.00zM542.73,400.91h43.64v10.91h-43.64zM280.91,411.82h10.91v10.91h-10.91zM302.73,411.82h10.91v10.91h-10.91zM324.55,411.82h10.91v10.91h-10.91zM346.36,411.82h10.91v10.91h-10.91zM379.09,411.82h10.91v10.91h-10.91zM422.73,411.82h10.91v10.91h-10.91zM444.55,411.82h10.91v10.91h-10.91zM488.18,411.82h10.91v10.91h-10.91zM520.91,411.82h21.82v10.91h-21.82zM553.64,411.82h21.82v10.91h-21.82zM586.36,411.82h10.91v10.91h-10.91zM608.18,411.82h21.82v10.91h-21.82zM291.82,422.73h32.73v10.91h-32.73zM335.45,422.73h98.18v10.91h-98.18zM477.27,422.73h10.91v10.91h-10.91zM531.82,422.73h43.64v10.91h-43.64zM586.36,422.73h10.91v10.91h-10.91zM608.18,422.73h10.91v10.91h-10.91zM291.82,433.64h32.73v10.91h-32.73zM357.27,433.64h21.82v10.91h-21.82zM390.00,433.64h21.82v10.91h-21.82zM422.73,433.64h21.82v10.91h-21.82zM477.27,433.64h10.91v10.91h-10.91zM531.82,433.64h21.82v10.91h-21.82zM586.36,433.64h21.82v10.91h-21.82zM619.09,433.64h10.91v10.91h-10.91zM291.82,444.55h10.91v10.91h-10.91zM313.64,444.55h32.73v10.91h-32.73zM357.27,444.55h10.91v10.91h-10.91zM400.91,444.55h10.91v10.91h-10.91zM455.45,444.55h10.91v10.91h-10.91zM477.27,444.55h21.82v10.91h-21.82zM510.00,444.55h10.91v10.91h-10.91zM531.82,444.55h21.82v10.91h-21.82zM564.55,444.55h21.82v10.91h-21.82zM619.09,444.55h10.91v10.91h-10.91zM270.00,455.45h43.64v10.91h-43.64zM324.55,455.45h10.91v10.91h-10.91zM357.27,455.45h10.91v10.91h-10.91zM379.09,455.45h21.82v10.91h-21.82zM411.82,455.45h98.18v10.91h-98.18zM520.91,455.45h10.91v10.91h-10.91zM553.64,455.45h10.91v10.91h-10.91zM586.36,455.45h21.82v10.91h-21.82zM619.09,455.45h10.91v10.91h-10.91zM270.00,466.36h21.82v10.91h-21.82zM302.73,466.36h21.82v10.91h-21.82zM335.45,466.36h10.91v10.91h-10.91zM357.27,466.36h32.73v10.91h-32.73zM411.82,466.36h10.91v10.91h-10.91zM433.64,466.36h21.82v10.91h-21.82zM477.27,466.36h21.82v10.91h-21.82zM520.91,466.36h21.82v10.91h-21.82zM564.55,466.36h10.91v10.91h-10.91zM586.36,466.36h21.82v10.91h-21.82zM619.09,466.36h10.91v10.91h-10.91zM280.91,477.27h10.91v10.91h-10.91zM313.64,477.27h10.91v10.91h-10.91zM357.27,477.27h10.91v10.91h-10.91zM379.09,477.27h21.82v10.91h-21.82zM411.82,477.27h10.91v10.91h-10.91zM444.55,477.27h32.73v10.91h-32.73zM499.09,477.27h10.91v10.91h-10.91zM542.73,477.27h10.91v10.91h-10.91zM575.45,477.27h43.64v10.91h-43.64zM270.00,488.18h10.91v10.91h-10.91zM302.73,488.18h21.82v10.91h-21.82zM335.45,488.18h32.73v10.91h-32.73zM379.09,488.18h10.91v10.91h-10.91zM400.91,488.18h32.73v10.91h-32.73zM444.55,488.18h10.91v10.91h-10.91zM488.18,488.18h32.73v10.91h-32.73zM564.55,488.18h10.91v10.91h-10.91zM586.36,488.18h10.91v10.91h-10.91zM608.18,488.18h21.82v10.91h-21.82zM270.00,499.09h10.91v10.91h-10.91zM291.82,499.09h21.82v10.91h-21.82zM346.36,499.09h10.91v10.91h-10.91zM400.91,499.09h10.91v10.91h-10.91zM444.55,499.09h32.73v10.91h-32.73zM488.18,499.09h65.45v10.91h-65.45zM564.55,499.09h21.82v10.91h-21.82zM270.00,510.00h10.91v10.91h-10.91zM291.82,510.00h10.91v10.91h-10.91zM335.45,510.00h32.73v10.91h-32.73zM379.09,510.00h43.64v10.91h-43.64zM433.64,510.00h21.82v10.91h-21.82zM466.36,510.00h10.91v10.91h-10.91zM488.18,510.00h21.82v10.91h-21.82zM531.82,510.00h10.91v10.91h-10.91zM553.64,510.00h10.91v10.91h-10.91zM597.27,510.00h21.82v10.91h-21.82zM270.00,520.91h10.91v10.91h-10.91zM302.73,520.91h10.91v10.91h-10.91zM379.09,520.91h10.91v10.91h-10.91zM400.91,520.91h10.91v10.91h-10.91zM422.73,520.91h10.91v10.91h-10.91zM466.36,520.91h10.91v10.91h-10.91zM531.82,520.91h10.91v10.91h-10.91zM564.55,520.91h43.64v10.91h-43.64zM619.09,520.91h10.91v10.91h-10.91zM270.00,531.82h21.82v10.91h-21.82zM313.64,531.82h10.91v10.91h-10.91zM335.45,531.82h10.91v10.91h-10.91zM357.27,531.82h43.64v10.91h-43.64zM411.82,531.82h43.64v10.91h-43.64zM477.27,531.82h10.91v10.91h-10.91zM510.00,531.82h87.27v10.91h-87.27zM357.27,542.73h10.91v10.91h-10.91zM390.00,542.73h10.91v10.91h-10.91zM411.82,542.73h10.91v10.91h-10.91zM433.64,542.73h21.82v10.91h-21.82zM466.36,542.73h32.73v10.91h-32.73zM520.91,542.73h21.82v10.91h-21.82zM575.45,542.73h10.91v10.91h-10.91zM597.27,542.73h10.91v10.91h-10.91zM619.09,542.73h10.91v10.91h-10.91zM270.00,553.64h76.36v10.91h-76.36zM368.18,553.64h21.82v10.91h-21.82zM400.91,553.64h10.91v10.91h-10.91zM433.64,553.64h21.82v10.91h-21.82zM466.36,553.64h10.91v10.91h-10.91zM488.18,553.64h21.82v10.91h-21.82zM520.91,553.64h21.82v10.91h-21.82zM553.64,553.64h10.91v10.91h-10.91zM575.45,553.64h10.91v10.91h-10.91zM597.27,553.64h21.82v10.91h-21.82zM270.00,564.55h10.91v10.91h-10.91zM335.45,564.55h10.91v10.91h-10.91zM368.18,564.55h10.91v10.91h-10.91zM390.00,564.55h10.91v10.91h-10.91zM411.82,564.55h43.64v10.91h-43.64zM488.18,564.55h10.91v10.91h-10.91zM520.91,564.55h21.82v10.91h-21.82zM575.45,564.55h32.73v10.91h-32.73zM619.09,564.55h10.91v10.91h-10.91zM270.00,575.45h10.91v10.91h-10.91zM291.82,575.45h32.73v10.91h-32.73zM335.45,575.45h10.91v10.91h-10.91zM368.18,575.45h10.91v10.91h-10.91zM400.91,575.45h43.64v10.91h-43.64zM466.36,575.45h10.91v10.91h-10.91zM499.09,575.45h10.91v10.91h-10.91zM531.82,575.45h65.45v10.91h-65.45zM608.18,575.45h10.91v10.91h-10.91zM270.00,586.36h10.91v10.91h-10.91zM291.82,586.36h32.73v10.91h-32.73zM335.45,586.36h10.91v10.91h-10.91zM379.09,586.36h54.55v10.91h-54.55zM444.55,586.36h21.82v10.91h-21.82zM488.18,586.36h43.64v10.91h-43.64zM542.73,586.36h10.91v10.91h-10.91zM564.55,586.36h43.64v10.91h-43.64zM619.09,586.36h10.91v10.91h-10.91zM270.00,597.27h10.91v10.91h-10.91zM291.82,597.27h32.73v10.91h-32.73zM335.45,597.27h10.91v10.91h-10.91zM368.18,597.27h21.82v10.91h-21.82zM400.91,597.27h21.82v10.91h-21.82zM444.55,597.27h32.73v10.91h-32.73zM488.18,597.27h10.91v10.91h-10.91zM542.73,597.27h10.91v10.91h-10.91zM564.55,597.27h32.73v10.91h-32.73zM608.18,597.27h21.82v10.91h-21.82zM270.00,608.18h10.91v10.91h-10.91zM335.45,608.18h10.91v10.91h-10.91zM368.18,608.18h10.91v10.91h-10.91zM390.00,608.18h10.91v10.91h-10.91zM411.82,608.18h10.91v10.91h-10.91zM433.64,608.18h21.82v10.91h-21.82zM477.27,608.18h21.82v10.91h-21.82zM520.91,608.18h10.91v10.91h-10.91zM564.55,608.18h21.82v10.91h-21.82zM597.27,608.18h10.91v10.91h-10.91zM270.00,619.09h76.36v10.91h-76.36zM357.27,619.09h43.64v10.91h-43.64zM455.45,619.09h10.91v10.91h-10.91zM477.27,619.09h10.91v10.91h-10.91zM510.00,619.09h10.91v10.91h-10.91zM531.82,619.09h10.91v10.91h-10.91zM564.55,619.09h10.91v10.91h-10.91zM586.36,619.09h10.91v10.91h-10.91zM608.18,619.09h10.91v10.91h-10.91z" fill="#fff"/><rect x="258" y="258" width="384" height="384" rx="10" fill="none" stroke="#fff" stroke-width="12"/>
<text x="450" y="705" fill="#fff" font-family="Inter,Arial,sans-serif" font-size="43" font-weight="900" text-anchor="middle" letter-spacing="5">HF-000006</text>
<text x="450" y="750" fill="#ccc" font-family="Inter,Arial,sans-serif" font-size="21" font-weight="700" text-anchor="middle">SCAN TO SEE THE FULL BUILD</text>
<text x="450" y="785" fill="#95ff00" font-family="Inter,Arial,sans-serif" font-size="16" font-weight="900" text-anchor="middle" letter-spacing="2">HOTFLASH.APP</text></svg>